<?xml version="1.0" standalone="no"?>
<!DOCTYPE svg PUBLIC "-//W3C//DTD SVG 20010904//EN" "http://www.w3.org/TR/2001/REC-SVG-20010904/DTD/svg10.dtd">
<!-- Created using Krita: http://krita.org -->
<svg xmlns="http://www.w3.org/2000/svg" 
    xmlns:xlink="http://www.w3.org/1999/xlink"
    xmlns:krita="http://krita.org/namespaces/svg/krita"
    xmlns:sodipodi="http://sodipodi.sourceforge.net/DTD/sodipodi-0.dtd"
    width="595.32pt"
    height="841.92pt"
    viewBox="0 0 595.32 841.92">
<defs/>
<path id="shape0" transform="matrix(0.999999987697006 0 0 1.00000002029866 165.599997962624 2.29294639034488)" fill="#ffa819" fill-rule="evenodd" d="M86.4 324.107C67.3391 323.823 54.7882 318.931 33.6 307.307C3.22224 290.642 11.5919 240.458 13.602 226.207C15.0786 215.738 25.9233 194.721 44.0694 174.515C62.6889 153.782 60.0945 143.214 58.2738 123.157C56.6546 105.318 56.491 99.5088 45.0987 91.5858C26.7421 78.8193 31.9881 140.028 0 151.307C30.9348 120.115 13.4492 54.0333 52.8 62.5071C69.0404 66.0042 77.4607 114.252 83.5947 129.16C85.649 134.152 88.2239 154.969 98.8284 156.173C109.433 157.376 109.074 121.589 103.2 108.107C97.5637 95.1703 91.6644 76.9605 86.4 50.5071C82.9775 33.309 95.7775 16.509 124.8 0.107054C125.05 -1.10005 119.275 7.901 107.475 27.1102C98.8163 41.2043 97.784 58.4314 116.327 88.6956C123.969 101.169 132.315 113.07 143.706 124.268C152.43 132.844 148.901 137.533 161.616 133.717C168.416 131.677 164.664 128.642 158.116 103.814C150.445 74.7212 157.09 62.2647 178.908 39.6718C193.75 24.3038 216.514 24.7155 247.2 40.9071C206.627 31.4556 185.03 39.9 182.408 66.2402C179.808 92.3604 181.713 94.7662 188.965 116.992C196.647 140.537 204.821 146.077 216 165.707C229.166 188.827 266.048 253.33 216.169 302.355C208.996 309.405 185.303 316.3 158.4 321.707C147.824 323.833 95.8882 324.249 86.4 324.107Z"/><path id="shape1" transform="matrix(0.999999987697006 0 0 1.00000002029866 258.773149935417 170.99164269076)" sodipodi:type="arc" sodipodi:rx="38.88" sodipodi:ry="62.04" sodipodi:cx="38.8869066551413" sodipodi:cy="62.0519821261877" sodipodi:start="6.1229489580251" sodipodi:end="6.0604998308445" sodipodi:open="true" d="M76.8069 48.3505C72.1169 15.3011 51.6758 -5.62951 30.8933 1.33735C10.1108 8.30422 -3.32375 40.5909 0.71735 73.8578C4.75845 107.125 24.7801 129.063 45.6887 123.135C66.5974 117.207 80.6571 85.6054 77.2688 52.1534" fill="#955919" fill-rule="evenodd" stroke="#da653f" stroke-width="0.12" stroke-linecap="square" stroke-linejoin="bevel"/><ellipse id="shape2" transform="matrix(0.999999987697006 0 0 1.00000002029866 283.79999650841 226.08000458912)" rx="6.96000000000001" ry="14.64" cx="6.96000000000001" cy="14.64" fill="#fefe19" fill-rule="evenodd" stroke="#fefe19" stroke-width="0.12" stroke-linecap="square" stroke-linejoin="bevel"/><path id="shape01" transform="matrix(0.999999987697006 0 0 1.00000002029866 71.9999991141844 314.400006381897)" fill="#aa0000" fill-rule="evenodd" d="M115.2 0L179.459 273.273L352.8 0L434.4 0L225.66 340.956L72 340.8L0 0Z"/><path id="shape11" transform="matrix(0.999999987697006 0 0 1.00000002029866 184.66065451389 291.656349616585)" fill="#4b0019" fill-rule="evenodd" d="M25.6263 7.87758C41.291 -6.99804 56.0567 1.37105 66.3868 14.9921C74.5347 25.7358 77.0089 27.13 94.1781 29.5547C101.895 30.6446 114.196 11.1703 135.35 8.4334C143.317 7.4027 158.464 17.3243 179.405 21.8844C190.374 24.2731 206.932 16.1614 243.579 22.7437C243.357 21.1348 183.986 115.403 65.4638 305.547C43.6425 211.279 23.9857 127.202 0 22.7437C13.4001 16.3315 21.9422 11.3761 25.6263 7.87758Z"/>
</svg>
